<svg width="1220" height="1155" viewBox="0 0 1220 1155" fill="none" xmlns="http://www.w3.org/2000/svg">
<g filter="url(#filter0_d_2_154)">
<mask id="path-1-inside-1_2_154" fill="white">
<path fill-rule="evenodd" clip-rule="evenodd" d="M0 100C0 44.7715 44.7716 0 100 0H1120C1175.23 0 1220 44.7715 1220 100V1030C1220 1085.23 1175.23 1130 1120 1130H100C44.7715 1130 0 1085.23 0 1030V100ZM179 112C179 146.242 151.242 174 117 174C82.7583 174 55 146.242 55 112C55 77.7583 82.7583 50 117 50C151.242 50 179 77.7583 179 112ZM281 174C315.242 174 343 146.242 343 112C343 77.7583 315.242 50 281 50C246.758 50 219 77.7583 219 112C219 146.242 246.758 174 281 174ZM507 112C507 146.242 479.242 174 445 174C410.758 174 383 146.242 383 112C383 77.7583 410.758 50 445 50C479.242 50 507 77.7583 507 112ZM609 174C643.242 174 671 146.242 671 112C671 77.7583 643.242 50 609 50C574.758 50 547 77.7583 547 112C547 146.242 574.758 174 609 174ZM835 112C835 146.242 807.242 174 773 174C738.758 174 711 146.242 711 112C711 77.7583 738.758 50 773 50C807.242 50 835 77.7583 835 112ZM937 174C971.242 174 999 146.242 999 112C999 77.7583 971.242 50 937 50C902.758 50 875 77.7583 875 112C875 146.242 902.758 174 937 174ZM1163 112C1163 146.242 1135.24 174 1101 174C1066.76 174 1039 146.242 1039 112C1039 77.7583 1066.76 50 1101 50C1135.24 50 1163 77.7583 1163 112ZM117 338C151.242 338 179 310.242 179 276C179 241.758 151.242 214 117 214C82.7583 214 55 241.758 55 276C55 310.242 82.7583 338 117 338ZM343 276C343 310.242 315.242 338 281 338C246.758 338 219 310.242 219 276C219 241.758 246.758 214 281 214C315.242 214 343 241.758 343 276ZM445 338C479.242 338 507 310.242 507 276C507 241.758 479.242 214 445 214C410.758 214 383 241.758 383 276C383 310.242 410.758 338 445 338ZM671 276C671 310.242 643.242 338 609 338C574.758 338 547 310.242 547 276C547 241.758 574.758 214 609 214C643.242 214 671 241.758 671 276ZM773 338C807.242 338 835 310.242 835 276C835 241.758 807.242 214 773 214C738.758 214 711 241.758 711 276C711 310.242 738.758 338 773 338ZM999 276C999 310.242 971.242 338 937 338C902.758 338 875 310.242 875 276C875 241.758 902.758 214 937 214C971.242 214 999 241.758 999 276ZM1101 338C1135.24 338 1163 310.242 1163 276C1163 241.758 1135.24 214 1101 214C1066.76 214 1039 241.758 1039 276C1039 310.242 1066.76 338 1101 338ZM180 440C180 474.242 152.242 502 118 502C83.7583 502 56 474.242 56 440C56 405.758 83.7583 378 118 378C152.242 378 180 405.758 180 440ZM282 502C316.242 502 344 474.242 344 440C344 405.758 316.242 378 282 378C247.758 378 220 405.758 220 440C220 474.242 247.758 502 282 502ZM508 440C508 474.242 480.242 502 446 502C411.758 502 384 474.242 384 440C384 405.758 411.758 378 446 378C480.242 378 508 405.758 508 440ZM610 502C644.242 502 672 474.242 672 440C672 405.758 644.242 378 610 378C575.758 378 548 405.758 548 440C548 474.242 575.758 502 610 502ZM836 440C836 474.242 808.242 502 774 502C739.758 502 712 474.242 712 440C712 405.758 739.758 378 774 378C808.242 378 836 405.758 836 440ZM938 502C972.242 502 1000 474.242 1000 440C1000 405.758 972.242 378 938 378C903.758 378 876 405.758 876 440C876 474.242 903.758 502 938 502ZM1164 440C1164 474.242 1136.24 502 1102 502C1067.76 502 1040 474.242 1040 440C1040 405.758 1067.76 378 1102 378C1136.24 378 1164 405.758 1164 440ZM118 666C152.242 666 180 638.242 180 604C180 569.758 152.242 542 118 542C83.7583 542 56 569.758 56 604C56 638.242 83.7583 666 118 666ZM344 604C344 638.242 316.242 666 282 666C247.758 666 220 638.242 220 604C220 569.758 247.758 542 282 542C316.242 542 344 569.758 344 604ZM446 666C480.242 666 508 638.242 508 604C508 569.758 480.242 542 446 542C411.758 542 384 569.758 384 604C384 638.242 411.758 666 446 666ZM672 604C672 638.242 644.242 666 610 666C575.758 666 548 638.242 548 604C548 569.758 575.758 542 610 542C644.242 542 672 569.758 672 604ZM774 666C808.242 666 836 638.242 836 604C836 569.758 808.242 542 774 542C739.758 542 712 569.758 712 604C712 638.242 739.758 666 774 666ZM1000 604C1000 638.242 972.242 666 938 666C903.758 666 876 638.242 876 604C876 569.758 903.758 542 938 542C972.242 542 1000 569.758 1000 604ZM1102 666C1136.24 666 1164 638.242 1164 604C1164 569.758 1136.24 542 1102 542C1067.76 542 1040 569.758 1040 604C1040 638.242 1067.76 666 1102 666ZM180 768C180 802.242 152.242 830 118 830C83.7583 830 56 802.242 56 768C56 733.758 83.7583 706 118 706C152.242 706 180 733.758 180 768ZM282 830C316.242 830 344 802.242 344 768C344 733.758 316.242 706 282 706C247.758 706 220 733.758 220 768C220 802.242 247.758 830 282 830ZM508 768C508 802.242 480.242 830 446 830C411.758 830 384 802.242 384 768C384 733.758 411.758 706 446 706C480.242 706 508 733.758 508 768ZM610 830C644.242 830 672 802.242 672 768C672 733.758 644.242 706 610 706C575.758 706 548 733.758 548 768C548 802.242 575.758 830 610 830ZM836 768C836 802.242 808.242 830 774 830C739.758 830 712 802.242 712 768C712 733.758 739.758 706 774 706C808.242 706 836 733.758 836 768ZM938 830C972.242 830 1000 802.242 1000 768C1000 733.758 972.242 706 938 706C903.758 706 876 733.758 876 768C876 802.242 903.758 830 938 830ZM1164 768C1164 802.242 1136.24 830 1102 830C1067.76 830 1040 802.242 1040 768C1040 733.758 1067.76 706 1102 706C1136.24 706 1164 733.758 1164 768ZM118 994C152.242 994 180 966.242 180 932C180 897.758 152.242 870 118 870C83.7583 870 56 897.758 56 932C56 966.242 83.7583 994 118 994ZM344 932C344 966.242 316.242 994 282 994C247.758 994 220 966.242 220 932C220 897.758 247.758 870 282 870C316.242 870 344 897.758 344 932ZM446 994C480.242 994 508 966.242 508 932C508 897.758 480.242 870 446 870C411.758 870 384 897.758 384 932C384 966.242 411.758 994 446 994ZM672 932C672 966.242 644.242 994 610 994C575.758 994 548 966.242 548 932C548 897.758 575.758 870 610 870C644.242 870 672 897.758 672 932ZM774 994C808.242 994 836 966.242 836 932C836 897.758 808.242 870 774 870C739.758 870 712 897.758 712 932C712 966.242 739.758 994 774 994ZM1000 932C1000 966.242 972.242 994 938 994C903.758 994 876 966.242 876 932C876 897.758 903.758 870 938 870C972.242 870 1000 897.758 1000 932ZM1102 994C1136.24 994 1164 966.242 1164 932C1164 897.758 1136.24 870 1102 870C1067.76 870 1040 897.758 1040 932C1040 966.242 1067.76 994 1102 994Z"/>
</mask>
<path fill-rule="evenodd" clip-rule="evenodd" d="M0 100C0 44.7715 44.7716 0 100 0H1120C1175.23 0 1220 44.7715 1220 100V1030C1220 1085.23 1175.23 1130 1120 1130H100C44.7715 1130 0 1085.23 0 1030V100ZM179 112C179 146.242 151.242 174 117 174C82.7583 174 55 146.242 55 112C55 77.7583 82.7583 50 117 50C151.242 50 179 77.7583 179 112ZM281 174C315.242 174 343 146.242 343 112C343 77.7583 315.242 50 281 50C246.758 50 219 77.7583 219 112C219 146.242 246.758 174 281 174ZM507 112C507 146.242 479.242 174 445 174C410.758 174 383 146.242 383 112C383 77.7583 410.758 50 445 50C479.242 50 507 77.7583 507 112ZM609 174C643.242 174 671 146.242 671 112C671 77.7583 643.242 50 609 50C574.758 50 547 77.7583 547 112C547 146.242 574.758 174 609 174ZM835 112C835 146.242 807.242 174 773 174C738.758 174 711 146.242 711 112C711 77.7583 738.758 50 773 50C807.242 50 835 77.7583 835 112ZM937 174C971.242 174 999 146.242 999 112C999 77.7583 971.242 50 937 50C902.758 50 875 77.7583 875 112C875 146.242 902.758 174 937 174ZM1163 112C1163 146.242 1135.24 174 1101 174C1066.76 174 1039 146.242 1039 112C1039 77.7583 1066.76 50 1101 50C1135.24 50 1163 77.7583 1163 112ZM117 338C151.242 338 179 310.242 179 276C179 241.758 151.242 214 117 214C82.7583 214 55 241.758 55 276C55 310.242 82.7583 338 117 338ZM343 276C343 310.242 315.242 338 281 338C246.758 338 219 310.242 219 276C219 241.758 246.758 214 281 214C315.242 214 343 241.758 343 276ZM445 338C479.242 338 507 310.242 507 276C507 241.758 479.242 214 445 214C410.758 214 383 241.758 383 276C383 310.242 410.758 338 445 338ZM671 276C671 310.242 643.242 338 609 338C574.758 338 547 310.242 547 276C547 241.758 574.758 214 609 214C643.242 214 671 241.758 671 276ZM773 338C807.242 338 835 310.242 835 276C835 241.758 807.242 214 773 214C738.758 214 711 241.758 711 276C711 310.242 738.758 338 773 338ZM999 276C999 310.242 971.242 338 937 338C902.758 338 875 310.242 875 276C875 241.758 902.758 214 937 214C971.242 214 999 241.758 999 276ZM1101 338C1135.24 338 1163 310.242 1163 276C1163 241.758 1135.24 214 1101 214C1066.76 214 1039 241.758 1039 276C1039 310.242 1066.76 338 1101 338ZM180 440C180 474.242 152.242 502 118 502C83.7583 502 56 474.242 56 440C56 405.758 83.7583 378 118 378C152.242 378 180 405.758 180 440ZM282 502C316.242 502 344 474.242 344 440C344 405.758 316.242 378 282 378C247.758 378 220 405.758 220 440C220 474.242 247.758 502 282 502ZM508 440C508 474.242 480.242 502 446 502C411.758 502 384 474.242 384 440C384 405.758 411.758 378 446 378C480.242 378 508 405.758 508 440ZM610 502C644.242 502 672 474.242 672 440C672 405.758 644.242 378 610 378C575.758 378 548 405.758 548 440C548 474.242 575.758 502 610 502ZM836 440C836 474.242 808.242 502 774 502C739.758 502 712 474.242 712 440C712 405.758 739.758 378 774 378C808.242 378 836 405.758 836 440ZM938 502C972.242 502 1000 474.242 1000 440C1000 405.758 972.242 378 938 378C903.758 378 876 405.758 876 440C876 474.242 903.758 502 938 502ZM1164 440C1164 474.242 1136.24 502 1102 502C1067.76 502 1040 474.242 1040 440C1040 405.758 1067.76 378 1102 378C1136.24 378 1164 405.758 1164 440ZM118 666C152.242 666 180 638.242 180 604C180 569.758 152.242 542 118 542C83.7583 542 56 569.758 56 604C56 638.242 83.7583 666 118 666ZM344 604C344 638.242 316.242 666 282 666C247.758 666 220 638.242 220 604C220 569.758 247.758 542 282 542C316.242 542 344 569.758 344 604ZM446 666C480.242 666 508 638.242 508 604C508 569.758 480.242 542 446 542C411.758 542 384 569.758 384 604C384 638.242 411.758 666 446 666ZM672 604C672 638.242 644.242 666 610 666C575.758 666 548 638.242 548 604C548 569.758 575.758 542 610 542C644.242 542 672 569.758 672 604ZM774 666C808.242 666 836 638.242 836 604C836 569.758 808.242 542 774 542C739.758 542 712 569.758 712 604C712 638.242 739.758 666 774 666ZM1000 604C1000 638.242 972.242 666 938 666C903.758 666 876 638.242 876 604C876 569.758 903.758 542 938 542C972.242 542 1000 569.758 1000 604ZM1102 666C1136.24 666 1164 638.242 1164 604C1164 569.758 1136.24 542 1102 542C1067.76 542 1040 569.758 1040 604C1040 638.242 1067.76 666 1102 666ZM180 768C180 802.242 152.242 830 118 830C83.7583 830 56 802.242 56 768C56 733.758 83.7583 706 118 706C152.242 706 180 733.758 180 768ZM282 830C316.242 830 344 802.242 344 768C344 733.758 316.242 706 282 706C247.758 706 220 733.758 220 768C220 802.242 247.758 830 282 830ZM508 768C508 802.242 480.242 830 446 830C411.758 830 384 802.242 384 768C384 733.758 411.758 706 446 706C480.242 706 508 733.758 508 768ZM610 830C644.242 830 672 802.242 672 768C672 733.758 644.242 706 610 706C575.758 706 548 733.758 548 768C548 802.242 575.758 830 610 830ZM836 768C836 802.242 808.242 830 774 830C739.758 830 712 802.242 712 768C712 733.758 739.758 706 774 706C808.242 706 836 733.758 836 768ZM938 830C972.242 830 1000 802.242 1000 768C1000 733.758 972.242 706 938 706C903.758 706 876 733.758 876 768C876 802.242 903.758 830 938 830ZM1164 768C1164 802.242 1136.24 830 1102 830C1067.76 830 1040 802.242 1040 768C1040 733.758 1067.76 706 1102 706C1136.24 706 1164 733.758 1164 768ZM118 994C152.242 994 180 966.242 180 932C180 897.758 152.242 870 118 870C83.7583 870 56 897.758 56 932C56 966.242 83.7583 994 118 994ZM344 932C344 966.242 316.242 994 282 994C247.758 994 220 966.242 220 932C220 897.758 247.758 870 282 870C316.242 870 344 897.758 344 932ZM446 994C480.242 994 508 966.242 508 932C508 897.758 480.242 870 446 870C411.758 870 384 897.758 384 932C384 966.242 411.758 994 446 994ZM672 932C672 966.242 644.242 994 610 994C575.758 994 548 966.242 548 932C548 897.758 575.758 870 610 870C644.242 870 672 897.758 672 932ZM774 994C808.242 994 836 966.242 836 932C836 897.758 808.242 870 774 870C739.758 870 712 897.758 712 932C712 966.242 739.758 994 774 994ZM1000 932C1000 966.242 972.242 994 938 994C903.758 994 876 966.242 876 932C876 897.758 903.758 870 938 870C972.242 870 1000 897.758 1000 932ZM1102 994C1136.24 994 1164 966.242 1164 932C1164 897.758 1136.24 870 1102 870C1067.76 870 1040 897.758 1040 932C1040 966.242 1067.76 994 1102 994Z" fill="white"/>
<path d="M1120 -6H100V6H1120V-6ZM1226 1030V100H1214V1030H1226ZM100 1136H1120V1124H100V1136ZM-6 100V1030H6V100H-6ZM117 180C154.555 180 185 149.555 185 112H173C173 142.928 147.928 168 117 168V180ZM49 112C49 149.555 79.4446 180 117 180V168C86.0721 168 61 142.928 61 112H49ZM117 44C79.4446 44 49 74.4446 49 112H61C61 81.0721 86.0721 56 117 56V44ZM185 112C185 74.4446 154.555 44 117 44V56C147.928 56 173 81.0721 173 112H185ZM337 112C337 142.928 311.928 168 281 168V180C318.555 180 349 149.555 349 112H337ZM281 56C311.928 56 337 81.0721 337 112H349C349 74.4446 318.555 44 281 44V56ZM225 112C225 81.0721 250.072 56 281 56V44C243.445 44 213 74.4446 213 112H225ZM281 168C250.072 168 225 142.928 225 112H213C213 149.555 243.445 180 281 180V168ZM445 180C482.555 180 513 149.555 513 112H501C501 142.928 475.928 168 445 168V180ZM377 112C377 149.555 407.445 180 445 180V168C414.072 168 389 142.928 389 112H377ZM445 44C407.445 44 377 74.4446 377 112H389C389 81.0721 414.072 56 445 56V44ZM513 112C513 74.4446 482.555 44 445 44V56C475.928 56 501 81.0721 501 112H513ZM665 112C665 142.928 639.928 168 609 168V180C646.555 180 677 149.555 677 112H665ZM609 56C639.928 56 665 81.0721 665 112H677C677 74.4446 646.555 44 609 44V56ZM553 112C553 81.0721 578.072 56 609 56V44C571.445 44 541 74.4446 541 112H553ZM609 168C578.072 168 553 142.928 553 112H541C541 149.555 571.445 180 609 180V168ZM773 180C810.555 180 841 149.555 841 112H829C829 142.928 803.928 168 773 168V180ZM705 112C705 149.555 735.445 180 773 180V168C742.072 168 717 142.928 717 112H705ZM773 44C735.445 44 705 74.4446 705 112H717C717 81.0721 742.072 56 773 56V44ZM841 112C841 74.4446 810.555 44 773 44V56C803.928 56 829 81.0721 829 112H841ZM993 112C993 142.928 967.928 168 937 168V180C974.555 180 1005 149.555 1005 112H993ZM937 56C967.928 56 993 81.0721 993 112H1005C1005 74.4446 974.555 44 937 44V56ZM881 112C881 81.0721 906.072 56 937 56V44C899.445 44 869 74.4446 869 112H881ZM937 168C906.072 168 881 142.928 881 112H869C869 149.555 899.445 180 937 180V168ZM1101 180C1138.56 180 1169 149.555 1169 112H1157C1157 142.928 1131.93 168 1101 168V180ZM1033 112C1033 149.555 1063.44 180 1101 180V168C1070.07 168 1045 142.928 1045 112H1033ZM1101 44C1063.44 44 1033 74.4446 1033 112H1045C1045 81.0721 1070.07 56 1101 56V44ZM1169 112C1169 74.4446 1138.56 44 1101 44V56C1131.93 56 1157 81.0721 1157 112H1169ZM173 276C173 306.928 147.928 332 117 332V344C154.555 344 185 313.555 185 276H173ZM117 220C147.928 220 173 245.072 173 276H185C185 238.445 154.555 208 117 208V220ZM61 276C61 245.072 86.0721 220 117 220V208C79.4446 208 49 238.445 49 276H61ZM117 332C86.0721 332 61 306.928 61 276H49C49 313.555 79.4446 344 117 344V332ZM281 344C318.555 344 349 313.555 349 276H337C337 306.928 311.928 332 281 332V344ZM213 276C213 313.555 243.445 344 281 344V332C250.072 332 225 306.928 225 276H213ZM281 208C243.445 208 213 238.445 213 276H225C225 245.072 250.072 220 281 220V208ZM349 276C349 238.445 318.555 208 281 208V220C311.928 220 337 245.072 337 276H349ZM501 276C501 306.928 475.928 332 445 332V344C482.555 344 513 313.555 513 276H501ZM445 220C475.928 220 501 245.072 501 276H513C513 238.445 482.555 208 445 208V220ZM389 276C389 245.072 414.072 220 445 220V208C407.445 208 377 238.445 377 276H389ZM445 332C414.072 332 389 306.928 389 276H377C377 313.555 407.445 344 445 344V332ZM609 344C646.555 344 677 313.555 677 276H665C665 306.928 639.928 332 609 332V344ZM541 276C541 313.555 571.445 344 609 344V332C578.072 332 553 306.928 553 276H541ZM609 208C571.445 208 541 238.445 541 276H553C553 245.072 578.072 220 609 220V208ZM677 276C677 238.445 646.555 208 609 208V220C639.928 220 665 245.072 665 276H677ZM829 276C829 306.928 803.928 332 773 332V344C810.555 344 841 313.555 841 276H829ZM773 220C803.928 220 829 245.072 829 276H841C841 238.445 810.555 208 773 208V220ZM717 276C717 245.072 742.072 220 773 220V208C735.445 208 705 238.445 705 276H717ZM773 332C742.072 332 717 306.928 717 276H705C705 313.555 735.445 344 773 344V332ZM937 344C974.555 344 1005 313.555 1005 276H993C993 306.928 967.928 332 937 332V344ZM869 276C869 313.555 899.445 344 937 344V332C906.072 332 881 306.928 881 276H869ZM937 208C899.445 208 869 238.445 869 276H881C881 245.072 906.072 220 937 220V208ZM1005 276C1005 238.445 974.555 208 937 208V220C967.928 220 993 245.072 993 276H1005ZM1157 276C1157 306.928 1131.93 332 1101 332V344C1138.56 344 1169 313.555 1169 276H1157ZM1101 220C1131.93 220 1157 245.072 1157 276H1169C1169 238.445 1138.56 208 1101 208V220ZM1045 276C1045 245.072 1070.07 220 1101 220V208C1063.44 208 1033 238.445 1033 276H1045ZM1101 332C1070.07 332 1045 306.928 1045 276H1033C1033 313.555 1063.44 344 1101 344V332ZM118 508C155.555 508 186 477.555 186 440H174C174 470.928 148.928 496 118 496V508ZM50 440C50 477.555 80.4446 508 118 508V496C87.0721 496 62 470.928 62 440H50ZM118 372C80.4446 372 50 402.445 50 440H62C62 409.072 87.0721 384 118 384V372ZM186 440C186 402.445 155.555 372 118 372V384C148.928 384 174 409.072 174 440H186ZM338 440C338 470.928 312.928 496 282 496V508C319.555 508 350 477.555 350 440H338ZM282 384C312.928 384 338 409.072 338 440H350C350 402.445 319.555 372 282 372V384ZM226 440C226 409.072 251.072 384 282 384V372C244.445 372 214 402.445 214 440H226ZM282 496C251.072 496 226 470.928 226 440H214C214 477.555 244.445 508 282 508V496ZM446 508C483.555 508 514 477.555 514 440H502C502 470.928 476.928 496 446 496V508ZM378 440C378 477.555 408.445 508 446 508V496C415.072 496 390 470.928 390 440H378ZM446 372C408.445 372 378 402.445 378 440H390C390 409.072 415.072 384 446 384V372ZM514 440C514 402.445 483.555 372 446 372V384C476.928 384 502 409.072 502 440H514ZM666 440C666 470.928 640.928 496 610 496V508C647.555 508 678 477.555 678 440H666ZM610 384C640.928 384 666 409.072 666 440H678C678 402.445 647.555 372 610 372V384ZM554 440C554 409.072 579.072 384 610 384V372C572.445 372 542 402.445 542 440H554ZM610 496C579.072 496 554 470.928 554 440H542C542 477.555 572.445 508 610 508V496ZM774 508C811.555 508 842 477.555 842 440H830C830 470.928 804.928 496 774 496V508ZM706 440C706 477.555 736.445 508 774 508V496C743.072 496 718 470.928 718 440H706ZM774 372C736.445 372 706 402.445 706 440H718C718 409.072 743.072 384 774 384V372ZM842 440C842 402.445 811.555 372 774 372V384C804.928 384 830 409.072 830 440H842ZM994 440C994 470.928 968.928 496 938 496V508C975.555 508 1006 477.555 1006 440H994ZM938 384C968.928 384 994 409.072 994 440H1006C1006 402.445 975.555 372 938 372V384ZM882 440C882 409.072 907.072 384 938 384V372C900.445 372 870 402.445 870 440H882ZM938 496C907.072 496 882 470.928 882 440H870C870 477.555 900.445 508 938 508V496ZM1102 508C1139.56 508 1170 477.555 1170 440H1158C1158 470.928 1132.93 496 1102 496V508ZM1034 440C1034 477.555 1064.44 508 1102 508V496C1071.07 496 1046 470.928 1046 440H1034ZM1102 372C1064.44 372 1034 402.445 1034 440H1046C1046 409.072 1071.07 384 1102 384V372ZM1170 440C1170 402.445 1139.56 372 1102 372V384C1132.93 384 1158 409.072 1158 440H1170ZM174 604C174 634.928 148.928 660 118 660V672C155.555 672 186 641.555 186 604H174ZM118 548C148.928 548 174 573.072 174 604H186C186 566.445 155.555 536 118 536V548ZM62 604C62 573.072 87.0721 548 118 548V536C80.4446 536 50 566.445 50 604H62ZM118 660C87.0721 660 62 634.928 62 604H50C50 641.555 80.4446 672 118 672V660ZM282 672C319.555 672 350 641.555 350 604H338C338 634.928 312.928 660 282 660V672ZM214 604C214 641.555 244.445 672 282 672V660C251.072 660 226 634.928 226 604H214ZM282 536C244.445 536 214 566.445 214 604H226C226 573.072 251.072 548 282 548V536ZM350 604C350 566.445 319.555 536 282 536V548C312.928 548 338 573.072 338 604H350ZM502 604C502 634.928 476.928 660 446 660V672C483.555 672 514 641.555 514 604H502ZM446 548C476.928 548 502 573.072 502 604H514C514 566.445 483.555 536 446 536V548ZM390 604C390 573.072 415.072 548 446 548V536C408.445 536 378 566.445 378 604H390ZM446 660C415.072 660 390 634.928 390 604H378C378 641.555 408.445 672 446 672V660ZM610 672C647.555 672 678 641.555 678 604H666C666 634.928 640.928 660 610 660V672ZM542 604C542 641.555 572.445 672 610 672V660C579.072 660 554 634.928 554 604H542ZM610 536C572.445 536 542 566.445 542 604H554C554 573.072 579.072 548 610 548V536ZM678 604C678 566.445 647.555 536 610 536V548C640.928 548 666 573.072 666 604H678ZM830 604C830 634.928 804.928 660 774 660V672C811.555 672 842 641.555 842 604H830ZM774 548C804.928 548 830 573.072 830 604H842C842 566.445 811.555 536 774 536V548ZM718 604C718 573.072 743.072 548 774 548V536C736.445 536 706 566.445 706 604H718ZM774 660C743.072 660 718 634.928 718 604H706C706 641.555 736.445 672 774 672V660ZM938 672C975.555 672 1006 641.555 1006 604H994C994 634.928 968.928 660 938 660V672ZM870 604C870 641.555 900.445 672 938 672V660C907.072 660 882 634.928 882 604H870ZM938 536C900.445 536 870 566.445 870 604H882C882 573.072 907.072 548 938 548V536ZM1006 604C1006 566.445 975.555 536 938 536V548C968.928 548 994 573.072 994 604H1006ZM1158 604C1158 634.928 1132.93 660 1102 660V672C1139.56 672 1170 641.555 1170 604H1158ZM1102 548C1132.93 548 1158 573.072 1158 604H1170C1170 566.445 1139.56 536 1102 536V548ZM1046 604C1046 573.072 1071.07 548 1102 548V536C1064.44 536 1034 566.445 1034 604H1046ZM1102 660C1071.07 660 1046 634.928 1046 604H1034C1034 641.555 1064.44 672 1102 672V660ZM118 836C155.555 836 186 805.555 186 768H174C174 798.928 148.928 824 118 824V836ZM50 768C50 805.555 80.4446 836 118 836V824C87.0721 824 62 798.928 62 768H50ZM118 700C80.4446 700 50 730.445 50 768H62C62 737.072 87.0721 712 118 712V700ZM186 768C186 730.445 155.555 700 118 700V712C148.928 712 174 737.072 174 768H186ZM338 768C338 798.928 312.928 824 282 824V836C319.555 836 350 805.555 350 768H338ZM282 712C312.928 712 338 737.072 338 768H350C350 730.445 319.555 700 282 700V712ZM226 768C226 737.072 251.072 712 282 712V700C244.445 700 214 730.445 214 768H226ZM282 824C251.072 824 226 798.928 226 768H214C214 805.555 244.445 836 282 836V824ZM446 836C483.555 836 514 805.555 514 768H502C502 798.928 476.928 824 446 824V836ZM378 768C378 805.555 408.445 836 446 836V824C415.072 824 390 798.928 390 768H378ZM446 700C408.445 700 378 730.445 378 768H390C390 737.072 415.072 712 446 712V700ZM514 768C514 730.445 483.555 700 446 700V712C476.928 712 502 737.072 502 768H514ZM666 768C666 798.928 640.928 824 610 824V836C647.555 836 678 805.555 678 768H666ZM610 712C640.928 712 666 737.072 666 768H678C678 730.445 647.555 700 610 700V712ZM554 768C554 737.072 579.072 712 610 712V700C572.445 700 542 730.445 542 768H554ZM610 824C579.072 824 554 798.928 554 768H542C542 805.555 572.445 836 610 836V824ZM774 836C811.555 836 842 805.555 842 768H830C830 798.928 804.928 824 774 824V836ZM706 768C706 805.555 736.445 836 774 836V824C743.072 824 718 798.928 718 768H706ZM774 700C736.445 700 706 730.445 706 768H718C718 737.072 743.072 712 774 712V700ZM842 768C842 730.445 811.555 700 774 700V712C804.928 712 830 737.072 830 768H842ZM994 768C994 798.928 968.928 824 938 824V836C975.555 836 1006 805.555 1006 768H994ZM938 712C968.928 712 994 737.072 994 768H1006C1006 730.445 975.555 700 938 700V712ZM882 768C882 737.072 907.072 712 938 712V700C900.445 700 870 730.445 870 768H882ZM938 824C907.072 824 882 798.928 882 768H870C870 805.555 900.445 836 938 836V824ZM1102 836C1139.56 836 1170 805.555 1170 768H1158C1158 798.928 1132.93 824 1102 824V836ZM1034 768C1034 805.555 1064.44 836 1102 836V824C1071.07 824 1046 798.928 1046 768H1034ZM1102 700C1064.44 700 1034 730.445 1034 768H1046C1046 737.072 1071.07 712 1102 712V700ZM1170 768C1170 730.445 1139.56 700 1102 700V712C1132.93 712 1158 737.072 1158 768H1170ZM174 932C174 962.928 148.928 988 118 988V1000C155.555 1000 186 969.555 186 932H174ZM118 876C148.928 876 174 901.072 174 932H186C186 894.445 155.555 864 118 864V876ZM62 932C62 901.072 87.0721 876 118 876V864C80.4446 864 50 894.445 50 932H62ZM118 988C87.0721 988 62 962.928 62 932H50C50 969.555 80.4446 1000 118 1000V988ZM282 1000C319.555 1000 350 969.555 350 932H338C338 962.928 312.928 988 282 988V1000ZM214 932C214 969.555 244.445 1000 282 1000V988C251.072 988 226 962.928 226 932H214ZM282 864C244.445 864 214 894.445 214 932H226C226 901.072 251.072 876 282 876V864ZM350 932C350 894.445 319.555 864 282 864V876C312.928 876 338 901.072 338 932H350ZM502 932C502 962.928 476.928 988 446 988V1000C483.555 1000 514 969.555 514 932H502ZM446 876C476.928 876 502 901.072 502 932H514C514 894.445 483.555 864 446 864V876ZM390 932C390 901.072 415.072 876 446 876V864C408.445 864 378 894.445 378 932H390ZM446 988C415.072 988 390 962.928 390 932H378C378 969.555 408.445 1000 446 1000V988ZM610 1000C647.555 1000 678 969.555 678 932H666C666 962.928 640.928 988 610 988V1000ZM542 932C542 969.555 572.445 1000 610 1000V988C579.072 988 554 962.928 554 932H542ZM610 864C572.445 864 542 894.445 542 932H554C554 901.072 579.072 876 610 876V864ZM678 932C678 894.445 647.555 864 610 864V876C640.928 876 666 901.072 666 932H678ZM830 932C830 962.928 804.928 988 774 988V1000C811.555 1000 842 969.555 842 932H830ZM774 876C804.928 876 830 901.072 830 932H842C842 894.445 811.555 864 774 864V876ZM718 932C718 901.072 743.072 876 774 876V864C736.445 864 706 894.445 706 932H718ZM774 988C743.072 988 718 962.928 718 932H706C706 969.555 736.445 1000 774 1000V988ZM938 1000C975.555 1000 1006 969.555 1006 932H994C994 962.928 968.928 988 938 988V1000ZM870 932C870 969.555 900.445 1000 938 1000V988C907.072 988 882 962.928 882 932H870ZM938 864C900.445 864 870 894.445 870 932H882C882 901.072 907.072 876 938 876V864ZM1006 932C1006 894.445 975.555 864 938 864V876C968.928 876 994 901.072 994 932H1006ZM1158 932C1158 962.928 1132.93 988 1102 988V1000C1139.56 1000 1170 969.555 1170 932H1158ZM1102 876C1132.93 876 1158 901.072 1158 932H1170C1170 894.445 1139.56 864 1102 864V876ZM1046 932C1046 901.072 1071.07 876 1102 876V864C1064.44 864 1034 894.445 1034 932H1046ZM1102 988C1071.07 988 1046 962.928 1046 932H1034C1034 969.555 1064.44 1000 1102 1000V988ZM100 1124C48.0852 1124 6 1081.91 6 1030H-6C-6 1088.54 41.4578 1136 100 1136V1124ZM1214 1030C1214 1081.91 1171.91 1124 1120 1124V1136C1178.54 1136 1226 1088.54 1226 1030H1214ZM100 -6C41.4578 -6 -6 41.4578 -6 100H6C6 48.0852 48.0853 6 100 6V-6ZM1120 6C1171.91 6 1214 48.0852 1214 100H1226C1226 41.4578 1178.54 -6 1120 -6V6Z" fill="black" mask="url(#path-1-inside-1_2_154)"/>
</g>
<defs>
<filter id="filter0_d_2_154" x="0" y="0" width="1220" height="1155" filterUnits="userSpaceOnUse" color-interpolation-filters="sRGB">
<feFlood flood-opacity="0" result="BackgroundImageFix"/>
<feColorMatrix in="SourceAlpha" type="matrix" values="0 0 0 0 0 0 0 0 0 0 0 0 0 0 0 0 0 0 127 0" result="hardAlpha"/>
<feOffset dy="25"/>
<feColorMatrix type="matrix" values="0 0 0 0 0 0 0 0 0 0 0 0 0 0 0 0 0 0 1 0"/>
<feBlend mode="normal" in2="BackgroundImageFix" result="effect1_dropShadow_2_154"/>
<feBlend mode="normal" in="SourceGraphic" in2="effect1_dropShadow_2_154" result="shape"/>
</filter>
</defs>
</svg>
