<svg width="1220" height="1155" viewBox="0 0 1220 1155" fill="none" xmlns="http://www.w3.org/2000/svg">
<g filter="url(#filter0_d_2_110)">
<mask id="path-1-inside-1_2_110" fill="white">
<path fill-rule="evenodd" clip-rule="evenodd" d="M0 100C0 44.7715 44.7716 0 100 0H1120C1175.23 0 1220 44.7715 1220 100V1030C1220 1085.23 1175.23 1130 1120 1130H100C44.7715 1130 0 1085.23 0 1030V100ZM179 112C179 146.242 151.242 174 117 174C82.7583 174 55 146.242 55 112C55 77.7583 82.7583 50 117 50C151.242 50 179 77.7583 179 112ZM281 174C315.242 174 343 146.242 343 112C343 77.7583 315.242 50 281 50C246.758 50 219 77.7583 219 112C219 146.242 246.758 174 281 174ZM507 112C507 146.242 479.242 174 445 174C410.758 174 383 146.242 383 112C383 77.7583 410.758 50 445 50C479.242 50 507 77.7583 507 112ZM609 174C643.242 174 671 146.242 671 112C671 77.7583 643.242 50 609 50C574.758 50 547 77.7583 547 112C547 146.242 574.758 174 609 174ZM835 112C835 146.242 807.242 174 773 174C738.758 174 711 146.242 711 112C711 77.7583 738.758 50 773 50C807.242 50 835 77.7583 835 112ZM937 174C971.242 174 999 146.242 999 112C999 77.7583 971.242 50 937 50C902.758 50 875 77.7583 875 112C875 146.242 902.758 174 937 174ZM1163 112C1163 146.242 1135.24 174 1101 174C1066.76 174 1039 146.242 1039 112C1039 77.7583 1066.76 50 1101 50C1135.24 50 1163 77.7583 1163 112ZM117 338C151.242 338 179 310.242 179 276C179 241.758 151.242 214 117 214C82.7583 214 55 241.758 55 276C55 310.242 82.7583 338 117 338ZM343 276C343 310.242 315.242 338 281 338C246.758 338 219 310.242 219 276C219 241.758 246.758 214 281 214C315.242 214 343 241.758 343 276ZM445 338C479.242 338 507 310.242 507 276C507 241.758 479.242 214 445 214C410.758 214 383 241.758 383 276C383 310.242 410.758 338 445 338ZM671 276C671 310.242 643.242 338 609 338C574.758 338 547 310.242 547 276C547 241.758 574.758 214 609 214C643.242 214 671 241.758 671 276ZM773 338C807.242 338 835 310.242 835 276C835 241.758 807.242 214 773 214C738.758 214 711 241.758 711 276C711 310.242 738.758 338 773 338ZM999 276C999 310.242 971.242 338 937 338C902.758 338 875 310.242 875 276C875 241.758 902.758 214 937 214C971.242 214 999 241.758 999 276ZM1101 338C1135.24 338 1163 310.242 1163 276C1163 241.758 1135.24 214 1101 214C1066.76 214 1039 241.758 1039 276C1039 310.242 1066.76 338 1101 338ZM180 440C180 474.242 152.242 502 118 502C83.7583 502 56 474.242 56 440C56 405.758 83.7583 378 118 378C152.242 378 180 405.758 180 440ZM282 502C316.242 502 344 474.242 344 440C344 405.758 316.242 378 282 378C247.758 378 220 405.758 220 440C220 474.242 247.758 502 282 502ZM508 440C508 474.242 480.242 502 446 502C411.758 502 384 474.242 384 440C384 405.758 411.758 378 446 378C480.242 378 508 405.758 508 440ZM610 502C644.242 502 672 474.242 672 440C672 405.758 644.242 378 610 378C575.758 378 548 405.758 548 440C548 474.242 575.758 502 610 502ZM836 440C836 474.242 808.242 502 774 502C739.758 502 712 474.242 712 440C712 405.758 739.758 378 774 378C808.242 378 836 405.758 836 440ZM938 502C972.242 502 1000 474.242 1000 440C1000 405.758 972.242 378 938 378C903.758 378 876 405.758 876 440C876 474.242 903.758 502 938 502ZM1164 440C1164 474.242 1136.24 502 1102 502C1067.76 502 1040 474.242 1040 440C1040 405.758 1067.76 378 1102 378C1136.24 378 1164 405.758 1164 440ZM118 666C152.242 666 180 638.242 180 604C180 569.758 152.242 542 118 542C83.7583 542 56 569.758 56 604C56 638.242 83.7583 666 118 666ZM344 604C344 638.242 316.242 666 282 666C247.758 666 220 638.242 220 604C220 569.758 247.758 542 282 542C316.242 542 344 569.758 344 604ZM446 666C480.242 666 508 638.242 508 604C508 569.758 480.242 542 446 542C411.758 542 384 569.758 384 604C384 638.242 411.758 666 446 666ZM672 604C672 638.242 644.242 666 610 666C575.758 666 548 638.242 548 604C548 569.758 575.758 542 610 542C644.242 542 672 569.758 672 604ZM774 666C808.242 666 836 638.242 836 604C836 569.758 808.242 542 774 542C739.758 542 712 569.758 712 604C712 638.242 739.758 666 774 666ZM1000 604C1000 638.242 972.242 666 938 666C903.758 666 876 638.242 876 604C876 569.758 903.758 542 938 542C972.242 542 1000 569.758 1000 604ZM1102 666C1136.24 666 1164 638.242 1164 604C1164 569.758 1136.24 542 1102 542C1067.76 542 1040 569.758 1040 604C1040 638.242 1067.76 666 1102 666ZM180 768C180 802.242 152.242 830 118 830C83.7583 830 56 802.242 56 768C56 733.758 83.7583 706 118 706C152.242 706 180 733.758 180 768ZM282 830C316.242 830 344 802.242 344 768C344 733.758 316.242 706 282 706C247.758 706 220 733.758 220 768C220 802.242 247.758 830 282 830ZM508 768C508 802.242 480.242 830 446 830C411.758 830 384 802.242 384 768C384 733.758 411.758 706 446 706C480.242 706 508 733.758 508 768ZM610 830C644.242 830 672 802.242 672 768C672 733.758 644.242 706 610 706C575.758 706 548 733.758 548 768C548 802.242 575.758 830 610 830ZM836 768C836 802.242 808.242 830 774 830C739.758 830 712 802.242 712 768C712 733.758 739.758 706 774 706C808.242 706 836 733.758 836 768ZM938 830C972.242 830 1000 802.242 1000 768C1000 733.758 972.242 706 938 706C903.758 706 876 733.758 876 768C876 802.242 903.758 830 938 830ZM1164 768C1164 802.242 1136.24 830 1102 830C1067.76 830 1040 802.242 1040 768C1040 733.758 1067.76 706 1102 706C1136.24 706 1164 733.758 1164 768ZM118 994C152.242 994 180 966.242 180 932C180 897.758 152.242 870 118 870C83.7583 870 56 897.758 56 932C56 966.242 83.7583 994 118 994ZM344 932C344 966.242 316.242 994 282 994C247.758 994 220 966.242 220 932C220 897.758 247.758 870 282 870C316.242 870 344 897.758 344 932ZM446 994C480.242 994 508 966.242 508 932C508 897.758 480.242 870 446 870C411.758 870 384 897.758 384 932C384 966.242 411.758 994 446 994ZM672 932C672 966.242 644.242 994 610 994C575.758 994 548 966.242 548 932C548 897.758 575.758 870 610 870C644.242 870 672 897.758 672 932ZM774 994C808.242 994 836 966.242 836 932C836 897.758 808.242 870 774 870C739.758 870 712 897.758 712 932C712 966.242 739.758 994 774 994ZM1000 932C1000 966.242 972.242 994 938 994C903.758 994 876 966.242 876 932C876 897.758 903.758 870 938 870C972.242 870 1000 897.758 1000 932ZM1102 994C1136.24 994 1164 966.242 1164 932C1164 897.758 1136.24 870 1102 870C1067.76 870 1040 897.758 1040 932C1040 966.242 1067.76 994 1102 994Z"/>
</mask>
<path fill-rule="evenodd" clip-rule="evenodd" d="M0 100C0 44.7715 44.7716 0 100 0H1120C1175.23 0 1220 44.7715 1220 100V1030C1220 1085.23 1175.23 1130 1120 1130H100C44.7715 1130 0 1085.23 0 1030V100ZM179 112C179 146.242 151.242 174 117 174C82.7583 174 55 146.242 55 112C55 77.7583 82.7583 50 117 50C151.242 50 179 77.7583 179 112ZM281 174C315.242 174 343 146.242 343 112C343 77.7583 315.242 50 281 50C246.758 50 219 77.7583 219 112C219 146.242 246.758 174 281 174ZM507 112C507 146.242 479.242 174 445 174C410.758 174 383 146.242 383 112C383 77.7583 410.758 50 445 50C479.242 50 507 77.7583 507 112ZM609 174C643.242 174 671 146.242 671 112C671 77.7583 643.242 50 609 50C574.758 50 547 77.7583 547 112C547 146.242 574.758 174 609 174ZM835 112C835 146.242 807.242 174 773 174C738.758 174 711 146.242 711 112C711 77.7583 738.758 50 773 50C807.242 50 835 77.7583 835 112ZM937 174C971.242 174 999 146.242 999 112C999 77.7583 971.242 50 937 50C902.758 50 875 77.7583 875 112C875 146.242 902.758 174 937 174ZM1163 112C1163 146.242 1135.24 174 1101 174C1066.76 174 1039 146.242 1039 112C1039 77.7583 1066.76 50 1101 50C1135.24 50 1163 77.7583 1163 112ZM117 338C151.242 338 179 310.242 179 276C179 241.758 151.242 214 117 214C82.7583 214 55 241.758 55 276C55 310.242 82.7583 338 117 338ZM343 276C343 310.242 315.242 338 281 338C246.758 338 219 310.242 219 276C219 241.758 246.758 214 281 214C315.242 214 343 241.758 343 276ZM445 338C479.242 338 507 310.242 507 276C507 241.758 479.242 214 445 214C410.758 214 383 241.758 383 276C383 310.242 410.758 338 445 338ZM671 276C671 310.242 643.242 338 609 338C574.758 338 547 310.242 547 276C547 241.758 574.758 214 609 214C643.242 214 671 241.758 671 276ZM773 338C807.242 338 835 310.242 835 276C835 241.758 807.242 214 773 214C738.758 214 711 241.758 711 276C711 310.242 738.758 338 773 338ZM999 276C999 310.242 971.242 338 937 338C902.758 338 875 310.242 875 276C875 241.758 902.758 214 937 214C971.242 214 999 241.758 999 276ZM1101 338C1135.24 338 1163 310.242 1163 276C1163 241.758 1135.24 214 1101 214C1066.76 214 1039 241.758 1039 276C1039 310.242 1066.76 338 1101 338ZM180 440C180 474.242 152.242 502 118 502C83.7583 502 56 474.242 56 440C56 405.758 83.7583 378 118 378C152.242 378 180 405.758 180 440ZM282 502C316.242 502 344 474.242 344 440C344 405.758 316.242 378 282 378C247.758 378 220 405.758 220 440C220 474.242 247.758 502 282 502ZM508 440C508 474.242 480.242 502 446 502C411.758 502 384 474.242 384 440C384 405.758 411.758 378 446 378C480.242 378 508 405.758 508 440ZM610 502C644.242 502 672 474.242 672 440C672 405.758 644.242 378 610 378C575.758 378 548 405.758 548 440C548 474.242 575.758 502 610 502ZM836 440C836 474.242 808.242 502 774 502C739.758 502 712 474.242 712 440C712 405.758 739.758 378 774 378C808.242 378 836 405.758 836 440ZM938 502C972.242 502 1000 474.242 1000 440C1000 405.758 972.242 378 938 378C903.758 378 876 405.758 876 440C876 474.242 903.758 502 938 502ZM1164 440C1164 474.242 1136.24 502 1102 502C1067.76 502 1040 474.242 1040 440C1040 405.758 1067.76 378 1102 378C1136.24 378 1164 405.758 1164 440ZM118 666C152.242 666 180 638.242 180 604C180 569.758 152.242 542 118 542C83.7583 542 56 569.758 56 604C56 638.242 83.7583 666 118 666ZM344 604C344 638.242 316.242 666 282 666C247.758 666 220 638.242 220 604C220 569.758 247.758 542 282 542C316.242 542 344 569.758 344 604ZM446 666C480.242 666 508 638.242 508 604C508 569.758 480.242 542 446 542C411.758 542 384 569.758 384 604C384 638.242 411.758 666 446 666ZM672 604C672 638.242 644.242 666 610 666C575.758 666 548 638.242 548 604C548 569.758 575.758 542 610 542C644.242 542 672 569.758 672 604ZM774 666C808.242 666 836 638.242 836 604C836 569.758 808.242 542 774 542C739.758 542 712 569.758 712 604C712 638.242 739.758 666 774 666ZM1000 604C1000 638.242 972.242 666 938 666C903.758 666 876 638.242 876 604C876 569.758 903.758 542 938 542C972.242 542 1000 569.758 1000 604ZM1102 666C1136.24 666 1164 638.242 1164 604C1164 569.758 1136.24 542 1102 542C1067.76 542 1040 569.758 1040 604C1040 638.242 1067.76 666 1102 666ZM180 768C180 802.242 152.242 830 118 830C83.7583 830 56 802.242 56 768C56 733.758 83.7583 706 118 706C152.242 706 180 733.758 180 768ZM282 830C316.242 830 344 802.242 344 768C344 733.758 316.242 706 282 706C247.758 706 220 733.758 220 768C220 802.242 247.758 830 282 830ZM508 768C508 802.242 480.242 830 446 830C411.758 830 384 802.242 384 768C384 733.758 411.758 706 446 706C480.242 706 508 733.758 508 768ZM610 830C644.242 830 672 802.242 672 768C672 733.758 644.242 706 610 706C575.758 706 548 733.758 548 768C548 802.242 575.758 830 610 830ZM836 768C836 802.242 808.242 830 774 830C739.758 830 712 802.242 712 768C712 733.758 739.758 706 774 706C808.242 706 836 733.758 836 768ZM938 830C972.242 830 1000 802.242 1000 768C1000 733.758 972.242 706 938 706C903.758 706 876 733.758 876 768C876 802.242 903.758 830 938 830ZM1164 768C1164 802.242 1136.24 830 1102 830C1067.76 830 1040 802.242 1040 768C1040 733.758 1067.76 706 1102 706C1136.24 706 1164 733.758 1164 768ZM118 994C152.242 994 180 966.242 180 932C180 897.758 152.242 870 118 870C83.7583 870 56 897.758 56 932C56 966.242 83.7583 994 118 994ZM344 932C344 966.242 316.242 994 282 994C247.758 994 220 966.242 220 932C220 897.758 247.758 870 282 870C316.242 870 344 897.758 344 932ZM446 994C480.242 994 508 966.242 508 932C508 897.758 480.242 870 446 870C411.758 870 384 897.758 384 932C384 966.242 411.758 994 446 994ZM672 932C672 966.242 644.242 994 610 994C575.758 994 548 966.242 548 932C548 897.758 575.758 870 610 870C644.242 870 672 897.758 672 932ZM774 994C808.242 994 836 966.242 836 932C836 897.758 808.242 870 774 870C739.758 870 712 897.758 712 932C712 966.242 739.758 994 774 994ZM1000 932C1000 966.242 972.242 994 938 994C903.758 994 876 966.242 876 932C876 897.758 903.758 870 938 870C972.242 870 1000 897.758 1000 932ZM1102 994C1136.24 994 1164 966.242 1164 932C1164 897.758 1136.24 870 1102 870C1067.76 870 1040 897.758 1040 932C1040 966.242 1067.76 994 1102 994Z" fill="white"/>
<path d="M1120 -10H100V10H1120V-10ZM1230 1030V100H1210V1030H1230ZM100 1140H1120V1120H100V1140ZM-10 100V1030H10V100H-10ZM117 184C156.765 184 189 151.765 189 112H169C169 140.719 145.719 164 117 164V184ZM45 112C45 151.765 77.2355 184 117 184V164C88.2812 164 65 140.719 65 112H45ZM117 40C77.2355 40 45 72.2355 45 112H65C65 83.2812 88.2812 60 117 60V40ZM189 112C189 72.2355 156.765 40 117 40V60C145.719 60 169 83.2812 169 112H189ZM333 112C333 140.719 309.719 164 281 164V184C320.765 184 353 151.764 353 112H333ZM281 60C309.719 60 333 83.2812 333 112H353C353 72.2355 320.765 40 281 40V60ZM229 112C229 83.2812 252.281 60 281 60V40C241.235 40 209 72.2355 209 112H229ZM281 164C252.281 164 229 140.719 229 112H209C209 151.765 241.235 184 281 184V164ZM445 184C484.765 184 517 151.764 517 112H497C497 140.719 473.719 164 445 164V184ZM373 112C373 151.764 405.235 184 445 184V164C416.281 164 393 140.719 393 112H373ZM445 40C405.235 40 373 72.2355 373 112H393C393 83.2812 416.281 60 445 60V40ZM517 112C517 72.2355 484.765 40 445 40V60C473.719 60 497 83.2812 497 112H517ZM661 112C661 140.719 637.719 164 609 164V184C648.764 184 681 151.765 681 112H661ZM609 60C637.719 60 661 83.2812 661 112H681C681 72.2355 648.764 40 609 40V60ZM557 112C557 83.2812 580.281 60 609 60V40C569.236 40 537 72.2355 537 112H557ZM609 164C580.281 164 557 140.719 557 112H537C537 151.765 569.236 184 609 184V164ZM773 184C812.764 184 845 151.765 845 112H825C825 140.719 801.719 164 773 164V184ZM701 112C701 151.765 733.236 184 773 184V164C744.281 164 721 140.719 721 112H701ZM773 40C733.236 40 701 72.2355 701 112H721C721 83.2812 744.281 60 773 60V40ZM845 112C845 72.2355 812.764 40 773 40V60C801.719 60 825 83.2812 825 112H845ZM989 112C989 140.719 965.719 164 937 164V184C976.764 184 1009 151.765 1009 112H989ZM937 60C965.719 60 989 83.2812 989 112H1009C1009 72.2355 976.764 40 937 40V60ZM885 112C885 83.2812 908.281 60 937 60V40C897.236 40 865 72.2355 865 112H885ZM937 164C908.281 164 885 140.719 885 112H865C865 151.765 897.236 184 937 184V164ZM1101 184C1140.76 184 1173 151.764 1173 112H1153C1153 140.719 1129.72 164 1101 164V184ZM1029 112C1029 151.764 1061.24 184 1101 184V164C1072.28 164 1049 140.719 1049 112H1029ZM1101 40C1061.24 40 1029 72.2355 1029 112H1049C1049 83.2812 1072.28 60 1101 60V40ZM1173 112C1173 72.2355 1140.76 40 1101 40V60C1129.72 60 1153 83.2812 1153 112H1173ZM169 276C169 304.719 145.719 328 117 328V348C156.764 348 189 315.765 189 276H169ZM117 224C145.719 224 169 247.281 169 276H189C189 236.235 156.765 204 117 204V224ZM65 276C65 247.281 88.2812 224 117 224V204C77.2355 204 45 236.235 45 276H65ZM117 328C88.2812 328 65 304.719 65 276H45C45 315.765 77.2355 348 117 348V328ZM281 348C320.765 348 353 315.765 353 276H333C333 304.719 309.719 328 281 328V348ZM209 276C209 315.765 241.236 348 281 348V328C252.281 328 229 304.719 229 276H209ZM281 204C241.235 204 209 236.235 209 276H229C229 247.281 252.281 224 281 224V204ZM353 276C353 236.236 320.765 204 281 204V224C309.719 224 333 247.281 333 276H353ZM497 276C497 304.719 473.719 328 445 328V348C484.765 348 517 315.765 517 276H497ZM445 224C473.719 224 497 247.281 497 276H517C517 236.236 484.765 204 445 204V224ZM393 276C393 247.281 416.281 224 445 224V204C405.235 204 373 236.236 373 276H393ZM445 328C416.281 328 393 304.719 393 276H373C373 315.765 405.235 348 445 348V328ZM609 348C648.764 348 681 315.765 681 276H661C661 304.719 637.719 328 609 328V348ZM537 276C537 315.765 569.236 348 609 348V328C580.281 328 557 304.719 557 276H537ZM609 204C569.236 204 537 236.235 537 276H557C557 247.281 580.281 224 609 224V204ZM681 276C681 236.235 648.764 204 609 204V224C637.719 224 661 247.281 661 276H681ZM825 276C825 304.719 801.719 328 773 328V348C812.764 348 845 315.765 845 276H825ZM773 224C801.719 224 825 247.281 825 276H845C845 236.235 812.764 204 773 204V224ZM721 276C721 247.281 744.281 224 773 224V204C733.236 204 701 236.235 701 276H721ZM773 328C744.281 328 721 304.719 721 276H701C701 315.765 733.236 348 773 348V328ZM937 348C976.764 348 1009 315.765 1009 276H989C989 304.719 965.719 328 937 328V348ZM865 276C865 315.765 897.236 348 937 348V328C908.281 328 885 304.719 885 276H865ZM937 204C897.236 204 865 236.235 865 276H885C885 247.281 908.281 224 937 224V204ZM1009 276C1009 236.235 976.764 204 937 204V224C965.719 224 989 247.281 989 276H1009ZM1153 276C1153 304.719 1129.72 328 1101 328V348C1140.76 348 1173 315.765 1173 276H1153ZM1101 224C1129.72 224 1153 247.281 1153 276H1173C1173 236.236 1140.76 204 1101 204V224ZM1049 276C1049 247.281 1072.28 224 1101 224V204C1061.24 204 1029 236.236 1029 276H1049ZM1101 328C1072.28 328 1049 304.719 1049 276H1029C1029 315.765 1061.24 348 1101 348V328ZM118 512C157.764 512 190 479.765 190 440H170C170 468.719 146.719 492 118 492V512ZM46 440C46 479.765 78.2355 512 118 512V492C89.2812 492 66 468.719 66 440H46ZM118 368C78.2355 368 46 400.235 46 440H66C66 411.281 89.2812 388 118 388V368ZM190 440C190 400.235 157.764 368 118 368V388C146.719 388 170 411.281 170 440H190ZM334 440C334 468.719 310.719 492 282 492V512C321.765 512 354 479.765 354 440H334ZM282 388C310.719 388 334 411.281 334 440H354C354 400.235 321.765 368 282 368V388ZM230 440C230 411.281 253.281 388 282 388V368C242.236 368 210 400.235 210 440H230ZM282 492C253.281 492 230 468.719 230 440H210C210 479.765 242.236 512 282 512V492ZM446 512C485.765 512 518 479.765 518 440H498C498 468.719 474.719 492 446 492V512ZM374 440C374 479.765 406.235 512 446 512V492C417.281 492 394 468.719 394 440H374ZM446 368C406.235 368 374 400.235 374 440H394C394 411.281 417.281 388 446 388V368ZM518 440C518 400.235 485.765 368 446 368V388C474.719 388 498 411.281 498 440H518ZM662 440C662 468.719 638.719 492 610 492V512C649.764 512 682 479.765 682 440H662ZM610 388C638.719 388 662 411.281 662 440H682C682 400.235 649.764 368 610 368V388ZM558 440C558 411.281 581.281 388 610 388V368C570.236 368 538 400.235 538 440H558ZM610 492C581.281 492 558 468.719 558 440H538C538 479.765 570.236 512 610 512V492ZM774 512C813.764 512 846 479.765 846 440H826C826 468.719 802.719 492 774 492V512ZM702 440C702 479.765 734.236 512 774 512V492C745.281 492 722 468.719 722 440H702ZM774 368C734.236 368 702 400.235 702 440H722C722 411.281 745.281 388 774 388V368ZM846 440C846 400.235 813.764 368 774 368V388C802.719 388 826 411.281 826 440H846ZM990 440C990 468.719 966.719 492 938 492V512C977.764 512 1010 479.765 1010 440H990ZM938 388C966.719 388 990 411.281 990 440H1010C1010 400.235 977.764 368 938 368V388ZM886 440C886 411.281 909.281 388 938 388V368C898.236 368 866 400.235 866 440H886ZM938 492C909.281 492 886 468.719 886 440H866C866 479.765 898.236 512 938 512V492ZM1102 512C1141.76 512 1174 479.765 1174 440H1154C1154 468.719 1130.72 492 1102 492V512ZM1030 440C1030 479.765 1062.24 512 1102 512V492C1073.28 492 1050 468.719 1050 440H1030ZM1102 368C1062.24 368 1030 400.235 1030 440H1050C1050 411.281 1073.28 388 1102 388V368ZM1174 440C1174 400.235 1141.76 368 1102 368V388C1130.72 388 1154 411.281 1154 440H1174ZM170 604C170 632.719 146.719 656 118 656V676C157.765 676 190 643.764 190 604H170ZM118 552C146.719 552 170 575.281 170 604H190C190 564.236 157.765 532 118 532V552ZM66 604C66 575.281 89.2812 552 118 552V532C78.2355 532 46 564.236 46 604H66ZM118 656C89.2812 656 66 632.719 66 604H46C46 643.764 78.2355 676 118 676V656ZM282 676C321.765 676 354 643.764 354 604H334C334 632.719 310.719 656 282 656V676ZM210 604C210 643.764 242.235 676 282 676V656C253.281 656 230 632.719 230 604H210ZM282 532C242.235 532 210 564.236 210 604H230C230 575.281 253.281 552 282 552V532ZM354 604C354 564.236 321.765 532 282 532V552C310.719 552 334 575.281 334 604H354ZM498 604C498 632.719 474.719 656 446 656V676C485.765 676 518 643.764 518 604H498ZM446 552C474.719 552 498 575.281 498 604H518C518 564.236 485.765 532 446 532V552ZM394 604C394 575.281 417.281 552 446 552V532C406.235 532 374 564.236 374 604H394ZM446 656C417.281 656 394 632.719 394 604H374C374 643.764 406.235 676 446 676V656ZM610 676C649.764 676 682 643.764 682 604H662C662 632.719 638.719 656 610 656V676ZM538 604C538 643.764 570.236 676 610 676V656C581.281 656 558 632.719 558 604H538ZM610 532C570.236 532 538 564.236 538 604H558C558 575.281 581.281 552 610 552V532ZM682 604C682 564.236 649.764 532 610 532V552C638.719 552 662 575.281 662 604H682ZM826 604C826 632.719 802.719 656 774 656V676C813.764 676 846 643.764 846 604H826ZM774 552C802.719 552 826 575.281 826 604H846C846 564.236 813.764 532 774 532V552ZM722 604C722 575.281 745.281 552 774 552V532C734.236 532 702 564.236 702 604H722ZM774 656C745.281 656 722 632.719 722 604H702C702 643.764 734.236 676 774 676V656ZM938 676C977.764 676 1010 643.764 1010 604H990C990 632.719 966.719 656 938 656V676ZM866 604C866 643.764 898.236 676 938 676V656C909.281 656 886 632.719 886 604H866ZM938 532C898.236 532 866 564.236 866 604H886C886 575.281 909.281 552 938 552V532ZM1010 604C1010 564.236 977.764 532 938 532V552C966.719 552 990 575.281 990 604H1010ZM1154 604C1154 632.719 1130.72 656 1102 656V676C1141.76 676 1174 643.764 1174 604H1154ZM1102 552C1130.72 552 1154 575.281 1154 604H1174C1174 564.236 1141.76 532 1102 532V552ZM1050 604C1050 575.281 1073.28 552 1102 552V532C1062.24 532 1030 564.236 1030 604H1050ZM1102 656C1073.28 656 1050 632.719 1050 604H1030C1030 643.764 1062.24 676 1102 676V656ZM118 840C157.765 840 190 807.764 190 768H170C170 796.719 146.719 820 118 820V840ZM46 768C46 807.764 78.2355 840 118 840V820C89.2812 820 66 796.719 66 768H46ZM118 696C78.2355 696 46 728.236 46 768H66C66 739.281 89.2812 716 118 716V696ZM190 768C190 728.236 157.765 696 118 696V716C146.719 716 170 739.281 170 768H190ZM334 768C334 796.719 310.719 820 282 820V840C321.765 840 354 807.764 354 768H334ZM282 716C310.719 716 334 739.281 334 768H354C354 728.236 321.765 696 282 696V716ZM230 768C230 739.281 253.281 716 282 716V696C242.235 696 210 728.236 210 768H230ZM282 820C253.281 820 230 796.719 230 768H210C210 807.764 242.235 840 282 840V820ZM446 840C485.765 840 518 807.764 518 768H498C498 796.719 474.719 820 446 820V840ZM374 768C374 807.764 406.235 840 446 840V820C417.281 820 394 796.719 394 768H374ZM446 696C406.235 696 374 728.236 374 768H394C394 739.281 417.281 716 446 716V696ZM518 768C518 728.236 485.765 696 446 696V716C474.719 716 498 739.281 498 768H518ZM662 768C662 796.719 638.719 820 610 820V840C649.764 840 682 807.764 682 768H662ZM610 716C638.719 716 662 739.281 662 768H682C682 728.236 649.764 696 610 696V716ZM558 768C558 739.281 581.281 716 610 716V696C570.236 696 538 728.236 538 768H558ZM610 820C581.281 820 558 796.719 558 768H538C538 807.764 570.236 840 610 840V820ZM774 840C813.764 840 846 807.764 846 768H826C826 796.719 802.719 820 774 820V840ZM702 768C702 807.764 734.236 840 774 840V820C745.281 820 722 796.719 722 768H702ZM774 696C734.236 696 702 728.236 702 768H722C722 739.281 745.281 716 774 716V696ZM846 768C846 728.236 813.764 696 774 696V716C802.719 716 826 739.281 826 768H846ZM990 768C990 796.719 966.719 820 938 820V840C977.764 840 1010 807.764 1010 768H990ZM938 716C966.719 716 990 739.281 990 768H1010C1010 728.236 977.764 696 938 696V716ZM886 768C886 739.281 909.281 716 938 716V696C898.236 696 866 728.236 866 768H886ZM938 820C909.281 820 886 796.719 886 768H866C866 807.764 898.236 840 938 840V820ZM1102 840C1141.76 840 1174 807.764 1174 768H1154C1154 796.719 1130.72 820 1102 820V840ZM1030 768C1030 807.764 1062.24 840 1102 840V820C1073.28 820 1050 796.719 1050 768H1030ZM1102 696C1062.24 696 1030 728.236 1030 768H1050C1050 739.281 1073.28 716 1102 716V696ZM1174 768C1174 728.236 1141.76 696 1102 696V716C1130.72 716 1154 739.281 1154 768H1174ZM170 932C170 960.719 146.719 984 118 984V1004C157.765 1004 190 971.764 190 932H170ZM118 880C146.719 880 170 903.281 170 932H190C190 892.236 157.765 860 118 860V880ZM66 932C66 903.281 89.2812 880 118 880V860C78.2355 860 46 892.236 46 932H66ZM118 984C89.2812 984 66 960.719 66 932H46C46 971.764 78.2355 1004 118 1004V984ZM282 1004C321.765 1004 354 971.764 354 932H334C334 960.719 310.719 984 282 984V1004ZM210 932C210 971.764 242.235 1004 282 1004V984C253.281 984 230 960.719 230 932H210ZM282 860C242.235 860 210 892.236 210 932H230C230 903.281 253.281 880 282 880V860ZM354 932C354 892.236 321.765 860 282 860V880C310.719 880 334 903.281 334 932H354ZM498 932C498 960.719 474.719 984 446 984V1004C485.765 1004 518 971.764 518 932H498ZM446 880C474.719 880 498 903.281 498 932H518C518 892.236 485.765 860 446 860V880ZM394 932C394 903.281 417.281 880 446 880V860C406.235 860 374 892.236 374 932H394ZM446 984C417.281 984 394 960.719 394 932H374C374 971.764 406.235 1004 446 1004V984ZM610 1004C649.764 1004 682 971.764 682 932H662C662 960.719 638.719 984 610 984V1004ZM538 932C538 971.764 570.236 1004 610 1004V984C581.281 984 558 960.719 558 932H538ZM610 860C570.236 860 538 892.236 538 932H558C558 903.281 581.281 880 610 880V860ZM682 932C682 892.236 649.764 860 610 860V880C638.719 880 662 903.281 662 932H682ZM826 932C826 960.719 802.719 984 774 984V1004C813.764 1004 846 971.764 846 932H826ZM774 880C802.719 880 826 903.281 826 932H846C846 892.236 813.764 860 774 860V880ZM722 932C722 903.281 745.281 880 774 880V860C734.236 860 702 892.236 702 932H722ZM774 984C745.281 984 722 960.719 722 932H702C702 971.764 734.236 1004 774 1004V984ZM938 1004C977.764 1004 1010 971.764 1010 932H990C990 960.719 966.719 984 938 984V1004ZM866 932C866 971.764 898.236 1004 938 1004V984C909.281 984 886 960.719 886 932H866ZM938 860C898.236 860 866 892.236 866 932H886C886 903.281 909.281 880 938 880V860ZM1010 932C1010 892.236 977.764 860 938 860V880C966.719 880 990 903.281 990 932H1010ZM1154 932C1154 960.719 1130.72 984 1102 984V1004C1141.76 1004 1174 971.764 1174 932H1154ZM1102 880C1130.72 880 1154 903.281 1154 932H1174C1174 892.236 1141.76 860 1102 860V880ZM1050 932C1050 903.281 1073.28 880 1102 880V860C1062.24 860 1030 892.236 1030 932H1050ZM1102 984C1073.28 984 1050 960.719 1050 932H1030C1030 971.764 1062.24 1004 1102 1004V984ZM100 1120C50.2944 1120 10 1079.71 10 1030H-10C-10 1090.75 39.2487 1140 100 1140V1120ZM1210 1030C1210 1079.71 1169.71 1120 1120 1120V1140C1180.75 1140 1230 1090.75 1230 1030H1210ZM100 -10C39.2487 -10 -10 39.2487 -10 100H10C10 50.2944 50.2944 10 100 10V-10ZM1120 10C1169.71 10 1210 50.2944 1210 100H1230C1230 39.2487 1180.75 -10 1120 -10V10Z" fill="black" mask="url(#path-1-inside-1_2_110)"/>
</g>
<defs>
<filter id="filter0_d_2_110" x="0" y="0" width="1220" height="1144" filterUnits="userSpaceOnUse" color-interpolation-filters="sRGB">
<feFlood flood-opacity="0" result="BackgroundImageFix"/>
<feColorMatrix in="SourceAlpha" type="matrix" values="0 0 0 0 0 0 0 0 0 0 0 0 0 0 0 0 0 0 127 0" result="hardAlpha"/>
<feOffset dy="14"/>
<feColorMatrix type="matrix" values="0 0 0 0 0 0 0 0 0 0 0 0 0 0 0 0 0 0 0.25 0"/>
<feBlend mode="normal" in2="BackgroundImageFix" result="effect1_dropShadow_2_110"/>
<feBlend mode="normal" in="SourceGraphic" in2="effect1_dropShadow_2_110" result="shape"/>
</filter>
</defs>
</svg>
